<svg width="16" height="16" viewBox="0 0 16 16" fill="none" xmlns="http://www.w3.org/2000/svg">
<path d="M11.0718 4.37818C10.2364 3.59273 9.19031 3.18545 8.0135 3.18545C5.93593 3.18545 4.17071 4.58909 3.53872 6.48L3.52 6.46546V6.50231C3.36 6.98158 3.26545 7.4899 3.26545 8.02C3.26545 8.54358 3.35769 9.04592 3.51413 9.52H3.5426C4.17551 11.413 5.9433 12.8182 8.02391 12.8182C9.10058 12.8182 10.0099 12.527 10.7229 12.0465L10.7431 12.0622C11.5913 11.4949 12.1567 10.6526 12.3455 9.65818H8.04V6.56H15.5745C15.6691 7.08364 15.72 7.62909 15.72 8.19636C15.72 10.6327 14.8473 12.6836 13.3345 14.08H13.3018C11.9794 15.293 10.1747 16 8.02391 16C4.89572 16 2.19675 14.2016 0.88 11.5878V11.583L0.858182 11.6C0.312727 10.5253 0 9.31258 0 8.02C0 6.72742 0.312727 5.51473 0.858182 4.44H0.912766L0.88 4.41455C2.19483 1.79636 4.88987 0 8.0135 0C10.171 0 11.9725 0.792727 13.36 2.08727L11.0718 4.37818Z" fill="#151E29"/>
</svg>
