<svg width="24" height="24" viewBox="0 0 24 24" fill="none" xmlns="http://www.w3.org/2000/svg">
<g clip-path="url(#clip0_1409_2285)">
<path d="M15.1613 19H8.48135V18.28C9.16135 18.22 10.3613 18.04 10.3613 17.72C10.3613 17.6 10.3213 17.44 10.2613 17.28L9.10135 14.28H4.28135C4.02135 14.92 3.72135 15.72 3.54135 16.3C3.36135 16.9 3.30135 17.2 3.30135 17.42C3.30135 18.04 4.66135 18.22 5.34135 18.28V19H-0.118652V18.28C0.241348 18.26 0.861348 18.14 1.20135 17.92C1.68135 17.64 2.00135 17.26 2.28135 16.56C3.72135 13.06 5.36135 8.86 6.94135 4.94H8.32135C9.42135 7.64 12.6013 15.88 13.0413 16.92C13.2213 17.36 13.4613 17.66 13.9013 17.94C14.2613 18.14 14.7813 18.24 15.1613 18.28V19ZM8.72135 13.38L6.66135 8.18L4.64135 13.38H8.72135Z" fill="currentColor"/>
<path d="M16.0773 13H14.4467L18.1107 2.81818H19.8856L23.5496 13H21.919L19.0404 4.66761H18.9609L16.0773 13ZM16.3508 9.01278H21.6405V10.3054H16.3508V9.01278Z" fill="currentColor"/>
</g>
</svg>
